<mxfile host="app.diagrams.net" agent="Mozilla/5.0 (Windows NT 10.0; Win64; x64) AppleWebKit/537.36 (KHTML, like Gecko) Chrome/128.0.0.0 Safari/537.36" version="24.7.8">
  <diagram name="Page-1" id="ytKN1yEJvb9__po7pJUz">
    <mxGraphModel dx="1434" dy="772" grid="1" gridSize="10" guides="1" tooltips="1" connect="1" arrows="1" fold="1" page="1" pageScale="1" pageWidth="850" pageHeight="1100" math="0" shadow="0">
      <root>
        <mxCell id="0" />
        <mxCell id="1" parent="0" />
        <mxCell id="rap8g_OsDWdLjL0PqcoZ-1" style="edgeStyle=orthogonalEdgeStyle;rounded=0;orthogonalLoop=1;jettySize=auto;html=1;entryX=0;entryY=0.5;entryDx=0;entryDy=0;" edge="1" parent="1" source="rap8g_OsDWdLjL0PqcoZ-7" target="rap8g_OsDWdLjL0PqcoZ-13">
          <mxGeometry relative="1" as="geometry" />
        </mxCell>
        <mxCell id="rap8g_OsDWdLjL0PqcoZ-2" value="y" style="edgeLabel;html=1;align=center;verticalAlign=middle;resizable=0;points=[];" vertex="1" connectable="0" parent="rap8g_OsDWdLjL0PqcoZ-1">
          <mxGeometry x="0.5039" relative="1" as="geometry">
            <mxPoint as="offset" />
          </mxGeometry>
        </mxCell>
        <mxCell id="rap8g_OsDWdLjL0PqcoZ-3" style="edgeStyle=orthogonalEdgeStyle;rounded=0;orthogonalLoop=1;jettySize=auto;html=1;exitX=1;exitY=0.5;exitDx=0;exitDy=0;entryX=0;entryY=0.5;entryDx=0;entryDy=0;" edge="1" parent="1" source="rap8g_OsDWdLjL0PqcoZ-7" target="rap8g_OsDWdLjL0PqcoZ-10">
          <mxGeometry relative="1" as="geometry" />
        </mxCell>
        <mxCell id="rap8g_OsDWdLjL0PqcoZ-4" value="w" style="edgeLabel;html=1;align=center;verticalAlign=middle;resizable=0;points=[];" vertex="1" connectable="0" parent="rap8g_OsDWdLjL0PqcoZ-3">
          <mxGeometry x="0.7226" y="2" relative="1" as="geometry">
            <mxPoint x="3" y="2" as="offset" />
          </mxGeometry>
        </mxCell>
        <mxCell id="rap8g_OsDWdLjL0PqcoZ-5" style="edgeStyle=orthogonalEdgeStyle;rounded=0;orthogonalLoop=1;jettySize=auto;html=1;exitX=1;exitY=0.5;exitDx=0;exitDy=0;entryX=0;entryY=0.5;entryDx=0;entryDy=0;" edge="1" parent="1" source="rap8g_OsDWdLjL0PqcoZ-7" target="rap8g_OsDWdLjL0PqcoZ-16">
          <mxGeometry relative="1" as="geometry" />
        </mxCell>
        <mxCell id="rap8g_OsDWdLjL0PqcoZ-6" value="z" style="edgeLabel;html=1;align=center;verticalAlign=middle;resizable=0;points=[];" vertex="1" connectable="0" parent="rap8g_OsDWdLjL0PqcoZ-5">
          <mxGeometry x="0.756" y="2" relative="1" as="geometry">
            <mxPoint as="offset" />
          </mxGeometry>
        </mxCell>
        <mxCell id="rap8g_OsDWdLjL0PqcoZ-7" value="q0" style="ellipse;whiteSpace=wrap;html=1;" vertex="1" parent="1">
          <mxGeometry x="80" y="203" width="40" height="40" as="geometry" />
        </mxCell>
        <mxCell id="rap8g_OsDWdLjL0PqcoZ-8" style="edgeStyle=orthogonalEdgeStyle;rounded=0;orthogonalLoop=1;jettySize=auto;html=1;" edge="1" parent="1" source="rap8g_OsDWdLjL0PqcoZ-10" target="rap8g_OsDWdLjL0PqcoZ-19">
          <mxGeometry relative="1" as="geometry" />
        </mxCell>
        <mxCell id="rap8g_OsDWdLjL0PqcoZ-9" value="z" style="edgeLabel;html=1;align=center;verticalAlign=middle;resizable=0;points=[];" vertex="1" connectable="0" parent="rap8g_OsDWdLjL0PqcoZ-8">
          <mxGeometry x="0.0083" y="-4" relative="1" as="geometry">
            <mxPoint y="-4" as="offset" />
          </mxGeometry>
        </mxCell>
        <mxCell id="rap8g_OsDWdLjL0PqcoZ-10" value="q1" style="ellipse;whiteSpace=wrap;html=1;" vertex="1" parent="1">
          <mxGeometry x="240" y="83" width="40" height="40" as="geometry" />
        </mxCell>
        <mxCell id="rap8g_OsDWdLjL0PqcoZ-11" style="edgeStyle=orthogonalEdgeStyle;rounded=0;orthogonalLoop=1;jettySize=auto;html=1;" edge="1" parent="1" source="rap8g_OsDWdLjL0PqcoZ-13" target="rap8g_OsDWdLjL0PqcoZ-22">
          <mxGeometry relative="1" as="geometry" />
        </mxCell>
        <mxCell id="rap8g_OsDWdLjL0PqcoZ-12" value="x" style="edgeLabel;html=1;align=center;verticalAlign=middle;resizable=0;points=[];" vertex="1" connectable="0" parent="rap8g_OsDWdLjL0PqcoZ-11">
          <mxGeometry x="-0.0542" relative="1" as="geometry">
            <mxPoint as="offset" />
          </mxGeometry>
        </mxCell>
        <mxCell id="rap8g_OsDWdLjL0PqcoZ-13" value="q4" style="ellipse;whiteSpace=wrap;html=1;" vertex="1" parent="1">
          <mxGeometry x="240" y="203" width="40" height="40" as="geometry" />
        </mxCell>
        <mxCell id="rap8g_OsDWdLjL0PqcoZ-14" style="edgeStyle=orthogonalEdgeStyle;rounded=0;orthogonalLoop=1;jettySize=auto;html=1;exitX=1;exitY=0.5;exitDx=0;exitDy=0;" edge="1" parent="1" source="rap8g_OsDWdLjL0PqcoZ-16" target="rap8g_OsDWdLjL0PqcoZ-25">
          <mxGeometry relative="1" as="geometry" />
        </mxCell>
        <mxCell id="rap8g_OsDWdLjL0PqcoZ-15" value="w" style="edgeLabel;html=1;align=center;verticalAlign=middle;resizable=0;points=[];" vertex="1" connectable="0" parent="rap8g_OsDWdLjL0PqcoZ-14">
          <mxGeometry x="-0.0958" y="-1" relative="1" as="geometry">
            <mxPoint x="4" y="-1" as="offset" />
          </mxGeometry>
        </mxCell>
        <mxCell id="rap8g_OsDWdLjL0PqcoZ-16" value="q7" style="ellipse;whiteSpace=wrap;html=1;" vertex="1" parent="1">
          <mxGeometry x="240" y="323" width="40" height="40" as="geometry" />
        </mxCell>
        <mxCell id="rap8g_OsDWdLjL0PqcoZ-17" style="edgeStyle=orthogonalEdgeStyle;rounded=0;orthogonalLoop=1;jettySize=auto;html=1;exitX=1;exitY=0.5;exitDx=0;exitDy=0;entryX=0;entryY=0.5;entryDx=0;entryDy=0;" edge="1" parent="1" source="rap8g_OsDWdLjL0PqcoZ-19" target="rap8g_OsDWdLjL0PqcoZ-30">
          <mxGeometry relative="1" as="geometry" />
        </mxCell>
        <mxCell id="rap8g_OsDWdLjL0PqcoZ-18" value="w" style="edgeLabel;html=1;align=center;verticalAlign=middle;resizable=0;points=[];" vertex="1" connectable="0" parent="rap8g_OsDWdLjL0PqcoZ-17">
          <mxGeometry x="-0.0143" y="-3" relative="1" as="geometry">
            <mxPoint y="-3" as="offset" />
          </mxGeometry>
        </mxCell>
        <mxCell id="rap8g_OsDWdLjL0PqcoZ-19" value="q2" style="ellipse;whiteSpace=wrap;html=1;" vertex="1" parent="1">
          <mxGeometry x="360" y="83" width="40" height="40" as="geometry" />
        </mxCell>
        <mxCell id="rap8g_OsDWdLjL0PqcoZ-20" style="edgeStyle=orthogonalEdgeStyle;rounded=0;orthogonalLoop=1;jettySize=auto;html=1;exitX=1;exitY=0.5;exitDx=0;exitDy=0;entryX=0;entryY=0.5;entryDx=0;entryDy=0;" edge="1" parent="1" source="rap8g_OsDWdLjL0PqcoZ-22" target="rap8g_OsDWdLjL0PqcoZ-35">
          <mxGeometry relative="1" as="geometry" />
        </mxCell>
        <mxCell id="rap8g_OsDWdLjL0PqcoZ-21" value="w" style="edgeLabel;html=1;align=center;verticalAlign=middle;resizable=0;points=[];" vertex="1" connectable="0" parent="rap8g_OsDWdLjL0PqcoZ-20">
          <mxGeometry x="0.0571" y="-2" relative="1" as="geometry">
            <mxPoint y="-2" as="offset" />
          </mxGeometry>
        </mxCell>
        <mxCell id="rap8g_OsDWdLjL0PqcoZ-22" value="q5" style="ellipse;whiteSpace=wrap;html=1;" vertex="1" parent="1">
          <mxGeometry x="360" y="203" width="40" height="40" as="geometry" />
        </mxCell>
        <mxCell id="rap8g_OsDWdLjL0PqcoZ-23" style="edgeStyle=orthogonalEdgeStyle;rounded=0;orthogonalLoop=1;jettySize=auto;html=1;entryX=0;entryY=0.5;entryDx=0;entryDy=0;" edge="1" parent="1" source="rap8g_OsDWdLjL0PqcoZ-25" target="rap8g_OsDWdLjL0PqcoZ-38">
          <mxGeometry relative="1" as="geometry" />
        </mxCell>
        <mxCell id="rap8g_OsDWdLjL0PqcoZ-24" value="x" style="edgeLabel;html=1;align=center;verticalAlign=middle;resizable=0;points=[];" vertex="1" connectable="0" parent="rap8g_OsDWdLjL0PqcoZ-23">
          <mxGeometry x="0.1524" y="3" relative="1" as="geometry">
            <mxPoint as="offset" />
          </mxGeometry>
        </mxCell>
        <mxCell id="rap8g_OsDWdLjL0PqcoZ-25" value="q8" style="ellipse;whiteSpace=wrap;html=1;" vertex="1" parent="1">
          <mxGeometry x="360" y="323" width="40" height="40" as="geometry" />
        </mxCell>
        <mxCell id="rap8g_OsDWdLjL0PqcoZ-26" style="edgeStyle=orthogonalEdgeStyle;rounded=0;orthogonalLoop=1;jettySize=auto;html=1;exitX=1;exitY=0.5;exitDx=0;exitDy=0;entryX=0;entryY=0.5;entryDx=0;entryDy=0;" edge="1" parent="1" source="rap8g_OsDWdLjL0PqcoZ-30" target="rap8g_OsDWdLjL0PqcoZ-139">
          <mxGeometry relative="1" as="geometry">
            <mxPoint x="590" y="203" as="targetPoint" />
          </mxGeometry>
        </mxCell>
        <mxCell id="rap8g_OsDWdLjL0PqcoZ-27" value="z" style="edgeLabel;html=1;align=center;verticalAlign=middle;resizable=0;points=[];" vertex="1" connectable="0" parent="rap8g_OsDWdLjL0PqcoZ-26">
          <mxGeometry x="-0.5778" y="-4" relative="1" as="geometry">
            <mxPoint y="-4" as="offset" />
          </mxGeometry>
        </mxCell>
        <mxCell id="rap8g_OsDWdLjL0PqcoZ-30" value="q3" style="ellipse;whiteSpace=wrap;html=1;" vertex="1" parent="1">
          <mxGeometry x="470" y="83" width="40" height="40" as="geometry" />
        </mxCell>
        <mxCell id="rap8g_OsDWdLjL0PqcoZ-31" style="edgeStyle=orthogonalEdgeStyle;rounded=0;orthogonalLoop=1;jettySize=auto;html=1;exitX=1;exitY=0.5;exitDx=0;exitDy=0;entryX=0;entryY=0.5;entryDx=0;entryDy=0;" edge="1" parent="1" source="rap8g_OsDWdLjL0PqcoZ-35" target="rap8g_OsDWdLjL0PqcoZ-140">
          <mxGeometry relative="1" as="geometry">
            <mxPoint x="570" y="223" as="targetPoint" />
          </mxGeometry>
        </mxCell>
        <mxCell id="rap8g_OsDWdLjL0PqcoZ-32" value="z" style="edgeLabel;html=1;align=center;verticalAlign=middle;resizable=0;points=[];" vertex="1" connectable="0" parent="rap8g_OsDWdLjL0PqcoZ-31">
          <mxGeometry x="0.1333" y="-1" relative="1" as="geometry">
            <mxPoint y="-1" as="offset" />
          </mxGeometry>
        </mxCell>
        <mxCell id="rap8g_OsDWdLjL0PqcoZ-35" value="q6" style="ellipse;whiteSpace=wrap;html=1;" vertex="1" parent="1">
          <mxGeometry x="470" y="203" width="40" height="40" as="geometry" />
        </mxCell>
        <mxCell id="rap8g_OsDWdLjL0PqcoZ-36" style="edgeStyle=orthogonalEdgeStyle;rounded=0;orthogonalLoop=1;jettySize=auto;html=1;exitX=1;exitY=0.5;exitDx=0;exitDy=0;entryX=0;entryY=0.5;entryDx=0;entryDy=0;" edge="1" parent="1" source="rap8g_OsDWdLjL0PqcoZ-38" target="rap8g_OsDWdLjL0PqcoZ-144">
          <mxGeometry relative="1" as="geometry">
            <mxPoint x="590" y="243" as="targetPoint" />
          </mxGeometry>
        </mxCell>
        <mxCell id="rap8g_OsDWdLjL0PqcoZ-37" value="y" style="edgeLabel;html=1;align=center;verticalAlign=middle;resizable=0;points=[];" vertex="1" connectable="0" parent="rap8g_OsDWdLjL0PqcoZ-36">
          <mxGeometry x="-0.5333" relative="1" as="geometry">
            <mxPoint as="offset" />
          </mxGeometry>
        </mxCell>
        <mxCell id="rap8g_OsDWdLjL0PqcoZ-38" value="q9" style="ellipse;whiteSpace=wrap;html=1;" vertex="1" parent="1">
          <mxGeometry x="470" y="323" width="40" height="40" as="geometry" />
        </mxCell>
        <mxCell id="rap8g_OsDWdLjL0PqcoZ-40" style="edgeStyle=orthogonalEdgeStyle;rounded=0;orthogonalLoop=1;jettySize=auto;html=1;entryX=0;entryY=0.5;entryDx=0;entryDy=0;" edge="1" parent="1" source="rap8g_OsDWdLjL0PqcoZ-46" target="rap8g_OsDWdLjL0PqcoZ-52">
          <mxGeometry relative="1" as="geometry" />
        </mxCell>
        <mxCell id="rap8g_OsDWdLjL0PqcoZ-41" value="x" style="edgeLabel;html=1;align=center;verticalAlign=middle;resizable=0;points=[];" vertex="1" connectable="0" parent="rap8g_OsDWdLjL0PqcoZ-40">
          <mxGeometry x="0.5039" relative="1" as="geometry">
            <mxPoint as="offset" />
          </mxGeometry>
        </mxCell>
        <mxCell id="rap8g_OsDWdLjL0PqcoZ-42" style="edgeStyle=orthogonalEdgeStyle;rounded=0;orthogonalLoop=1;jettySize=auto;html=1;exitX=1;exitY=0.5;exitDx=0;exitDy=0;entryX=0;entryY=0.5;entryDx=0;entryDy=0;" edge="1" parent="1" source="rap8g_OsDWdLjL0PqcoZ-46" target="rap8g_OsDWdLjL0PqcoZ-49">
          <mxGeometry relative="1" as="geometry" />
        </mxCell>
        <mxCell id="rap8g_OsDWdLjL0PqcoZ-43" value="w" style="edgeLabel;html=1;align=center;verticalAlign=middle;resizable=0;points=[];" vertex="1" connectable="0" parent="rap8g_OsDWdLjL0PqcoZ-42">
          <mxGeometry x="0.7226" y="2" relative="1" as="geometry">
            <mxPoint x="3" y="2" as="offset" />
          </mxGeometry>
        </mxCell>
        <mxCell id="rap8g_OsDWdLjL0PqcoZ-44" style="edgeStyle=orthogonalEdgeStyle;rounded=0;orthogonalLoop=1;jettySize=auto;html=1;exitX=1;exitY=0.5;exitDx=0;exitDy=0;entryX=0;entryY=0.5;entryDx=0;entryDy=0;" edge="1" parent="1" source="rap8g_OsDWdLjL0PqcoZ-46" target="rap8g_OsDWdLjL0PqcoZ-55">
          <mxGeometry relative="1" as="geometry" />
        </mxCell>
        <mxCell id="rap8g_OsDWdLjL0PqcoZ-45" value="y" style="edgeLabel;html=1;align=center;verticalAlign=middle;resizable=0;points=[];" vertex="1" connectable="0" parent="rap8g_OsDWdLjL0PqcoZ-44">
          <mxGeometry x="0.756" y="2" relative="1" as="geometry">
            <mxPoint as="offset" />
          </mxGeometry>
        </mxCell>
        <mxCell id="rap8g_OsDWdLjL0PqcoZ-46" value="q23" style="ellipse;whiteSpace=wrap;html=1;" vertex="1" parent="1">
          <mxGeometry x="80" y="940" width="40" height="40" as="geometry" />
        </mxCell>
        <mxCell id="rap8g_OsDWdLjL0PqcoZ-47" style="edgeStyle=orthogonalEdgeStyle;rounded=0;orthogonalLoop=1;jettySize=auto;html=1;" edge="1" parent="1" source="rap8g_OsDWdLjL0PqcoZ-49" target="rap8g_OsDWdLjL0PqcoZ-58">
          <mxGeometry relative="1" as="geometry" />
        </mxCell>
        <mxCell id="rap8g_OsDWdLjL0PqcoZ-48" value="x" style="edgeLabel;html=1;align=center;verticalAlign=middle;resizable=0;points=[];" vertex="1" connectable="0" parent="rap8g_OsDWdLjL0PqcoZ-47">
          <mxGeometry x="0.0083" y="-4" relative="1" as="geometry">
            <mxPoint y="-4" as="offset" />
          </mxGeometry>
        </mxCell>
        <mxCell id="rap8g_OsDWdLjL0PqcoZ-49" value="q24" style="ellipse;whiteSpace=wrap;html=1;" vertex="1" parent="1">
          <mxGeometry x="240" y="820" width="40" height="40" as="geometry" />
        </mxCell>
        <mxCell id="rap8g_OsDWdLjL0PqcoZ-50" style="edgeStyle=orthogonalEdgeStyle;rounded=0;orthogonalLoop=1;jettySize=auto;html=1;" edge="1" parent="1" source="rap8g_OsDWdLjL0PqcoZ-52" target="rap8g_OsDWdLjL0PqcoZ-61">
          <mxGeometry relative="1" as="geometry" />
        </mxCell>
        <mxCell id="rap8g_OsDWdLjL0PqcoZ-51" value="y" style="edgeLabel;html=1;align=center;verticalAlign=middle;resizable=0;points=[];" vertex="1" connectable="0" parent="rap8g_OsDWdLjL0PqcoZ-50">
          <mxGeometry x="-0.0542" relative="1" as="geometry">
            <mxPoint as="offset" />
          </mxGeometry>
        </mxCell>
        <mxCell id="rap8g_OsDWdLjL0PqcoZ-52" value="q27" style="ellipse;whiteSpace=wrap;html=1;" vertex="1" parent="1">
          <mxGeometry x="240" y="940" width="40" height="40" as="geometry" />
        </mxCell>
        <mxCell id="rap8g_OsDWdLjL0PqcoZ-53" style="edgeStyle=orthogonalEdgeStyle;rounded=0;orthogonalLoop=1;jettySize=auto;html=1;exitX=1;exitY=0.5;exitDx=0;exitDy=0;" edge="1" parent="1" source="rap8g_OsDWdLjL0PqcoZ-55" target="rap8g_OsDWdLjL0PqcoZ-64">
          <mxGeometry relative="1" as="geometry" />
        </mxCell>
        <mxCell id="rap8g_OsDWdLjL0PqcoZ-54" value="z" style="edgeLabel;html=1;align=center;verticalAlign=middle;resizable=0;points=[];" vertex="1" connectable="0" parent="rap8g_OsDWdLjL0PqcoZ-53">
          <mxGeometry x="-0.0958" y="-1" relative="1" as="geometry">
            <mxPoint x="4" y="-1" as="offset" />
          </mxGeometry>
        </mxCell>
        <mxCell id="rap8g_OsDWdLjL0PqcoZ-55" value="q30" style="ellipse;whiteSpace=wrap;html=1;" vertex="1" parent="1">
          <mxGeometry x="240" y="1060" width="40" height="40" as="geometry" />
        </mxCell>
        <mxCell id="rap8g_OsDWdLjL0PqcoZ-56" style="edgeStyle=orthogonalEdgeStyle;rounded=0;orthogonalLoop=1;jettySize=auto;html=1;exitX=1;exitY=0.5;exitDx=0;exitDy=0;entryX=0;entryY=0.5;entryDx=0;entryDy=0;" edge="1" parent="1" source="rap8g_OsDWdLjL0PqcoZ-58" target="rap8g_OsDWdLjL0PqcoZ-67">
          <mxGeometry relative="1" as="geometry" />
        </mxCell>
        <mxCell id="rap8g_OsDWdLjL0PqcoZ-57" value="x" style="edgeLabel;html=1;align=center;verticalAlign=middle;resizable=0;points=[];" vertex="1" connectable="0" parent="rap8g_OsDWdLjL0PqcoZ-56">
          <mxGeometry x="-0.0143" y="-3" relative="1" as="geometry">
            <mxPoint y="-3" as="offset" />
          </mxGeometry>
        </mxCell>
        <mxCell id="rap8g_OsDWdLjL0PqcoZ-58" value="q25" style="ellipse;whiteSpace=wrap;html=1;" vertex="1" parent="1">
          <mxGeometry x="360" y="820" width="40" height="40" as="geometry" />
        </mxCell>
        <mxCell id="rap8g_OsDWdLjL0PqcoZ-59" style="edgeStyle=orthogonalEdgeStyle;rounded=0;orthogonalLoop=1;jettySize=auto;html=1;exitX=1;exitY=0.5;exitDx=0;exitDy=0;entryX=0;entryY=0.5;entryDx=0;entryDy=0;" edge="1" parent="1" source="rap8g_OsDWdLjL0PqcoZ-61" target="rap8g_OsDWdLjL0PqcoZ-70">
          <mxGeometry relative="1" as="geometry" />
        </mxCell>
        <mxCell id="rap8g_OsDWdLjL0PqcoZ-60" value="z" style="edgeLabel;html=1;align=center;verticalAlign=middle;resizable=0;points=[];" vertex="1" connectable="0" parent="rap8g_OsDWdLjL0PqcoZ-59">
          <mxGeometry x="0.0571" y="-2" relative="1" as="geometry">
            <mxPoint y="-2" as="offset" />
          </mxGeometry>
        </mxCell>
        <mxCell id="rap8g_OsDWdLjL0PqcoZ-61" value="q28" style="ellipse;whiteSpace=wrap;html=1;" vertex="1" parent="1">
          <mxGeometry x="360" y="940" width="40" height="40" as="geometry" />
        </mxCell>
        <mxCell id="rap8g_OsDWdLjL0PqcoZ-62" style="edgeStyle=orthogonalEdgeStyle;rounded=0;orthogonalLoop=1;jettySize=auto;html=1;entryX=0;entryY=0.5;entryDx=0;entryDy=0;" edge="1" parent="1" source="rap8g_OsDWdLjL0PqcoZ-64" target="rap8g_OsDWdLjL0PqcoZ-73">
          <mxGeometry relative="1" as="geometry" />
        </mxCell>
        <mxCell id="rap8g_OsDWdLjL0PqcoZ-63" value="w" style="edgeLabel;html=1;align=center;verticalAlign=middle;resizable=0;points=[];" vertex="1" connectable="0" parent="rap8g_OsDWdLjL0PqcoZ-62">
          <mxGeometry x="0.1524" y="3" relative="1" as="geometry">
            <mxPoint as="offset" />
          </mxGeometry>
        </mxCell>
        <mxCell id="rap8g_OsDWdLjL0PqcoZ-64" value="q31" style="ellipse;whiteSpace=wrap;html=1;" vertex="1" parent="1">
          <mxGeometry x="360" y="1060" width="40" height="40" as="geometry" />
        </mxCell>
        <mxCell id="rap8g_OsDWdLjL0PqcoZ-65" style="edgeStyle=orthogonalEdgeStyle;rounded=0;orthogonalLoop=1;jettySize=auto;html=1;exitX=1;exitY=0.5;exitDx=0;exitDy=0;" edge="1" parent="1" source="rap8g_OsDWdLjL0PqcoZ-67" target="rap8g_OsDWdLjL0PqcoZ-153">
          <mxGeometry relative="1" as="geometry" />
        </mxCell>
        <mxCell id="rap8g_OsDWdLjL0PqcoZ-66" value="z" style="edgeLabel;html=1;align=center;verticalAlign=middle;resizable=0;points=[];" vertex="1" connectable="0" parent="rap8g_OsDWdLjL0PqcoZ-65">
          <mxGeometry x="-0.5778" y="-4" relative="1" as="geometry">
            <mxPoint y="-4" as="offset" />
          </mxGeometry>
        </mxCell>
        <mxCell id="rap8g_OsDWdLjL0PqcoZ-67" value="q26" style="ellipse;whiteSpace=wrap;html=1;" vertex="1" parent="1">
          <mxGeometry x="470" y="820" width="40" height="40" as="geometry" />
        </mxCell>
        <mxCell id="rap8g_OsDWdLjL0PqcoZ-68" style="edgeStyle=orthogonalEdgeStyle;rounded=0;orthogonalLoop=1;jettySize=auto;html=1;exitX=1;exitY=0.5;exitDx=0;exitDy=0;entryX=0;entryY=0.5;entryDx=0;entryDy=0;" edge="1" parent="1" source="rap8g_OsDWdLjL0PqcoZ-70" target="rap8g_OsDWdLjL0PqcoZ-154">
          <mxGeometry relative="1" as="geometry">
            <mxPoint x="570" y="960" as="targetPoint" />
          </mxGeometry>
        </mxCell>
        <mxCell id="rap8g_OsDWdLjL0PqcoZ-69" value="x" style="edgeLabel;html=1;align=center;verticalAlign=middle;resizable=0;points=[];" vertex="1" connectable="0" parent="rap8g_OsDWdLjL0PqcoZ-68">
          <mxGeometry x="0.1333" y="-1" relative="1" as="geometry">
            <mxPoint y="-1" as="offset" />
          </mxGeometry>
        </mxCell>
        <mxCell id="rap8g_OsDWdLjL0PqcoZ-70" value="q29" style="ellipse;whiteSpace=wrap;html=1;" vertex="1" parent="1">
          <mxGeometry x="470" y="940" width="40" height="40" as="geometry" />
        </mxCell>
        <mxCell id="rap8g_OsDWdLjL0PqcoZ-71" style="edgeStyle=orthogonalEdgeStyle;rounded=0;orthogonalLoop=1;jettySize=auto;html=1;exitX=1;exitY=0.5;exitDx=0;exitDy=0;entryX=0;entryY=0.5;entryDx=0;entryDy=0;" edge="1" parent="1" source="rap8g_OsDWdLjL0PqcoZ-73" target="rap8g_OsDWdLjL0PqcoZ-155">
          <mxGeometry relative="1" as="geometry">
            <mxPoint x="590" y="980" as="targetPoint" />
          </mxGeometry>
        </mxCell>
        <mxCell id="rap8g_OsDWdLjL0PqcoZ-72" value="x" style="edgeLabel;html=1;align=center;verticalAlign=middle;resizable=0;points=[];" vertex="1" connectable="0" parent="rap8g_OsDWdLjL0PqcoZ-71">
          <mxGeometry x="-0.5333" relative="1" as="geometry">
            <mxPoint as="offset" />
          </mxGeometry>
        </mxCell>
        <mxCell id="rap8g_OsDWdLjL0PqcoZ-73" value="q32" style="ellipse;whiteSpace=wrap;html=1;" vertex="1" parent="1">
          <mxGeometry x="470" y="1060" width="40" height="40" as="geometry" />
        </mxCell>
        <mxCell id="rap8g_OsDWdLjL0PqcoZ-75" style="edgeStyle=orthogonalEdgeStyle;rounded=0;orthogonalLoop=1;jettySize=auto;html=1;entryX=0;entryY=0.5;entryDx=0;entryDy=0;" edge="1" parent="1" source="rap8g_OsDWdLjL0PqcoZ-81" target="rap8g_OsDWdLjL0PqcoZ-87">
          <mxGeometry relative="1" as="geometry" />
        </mxCell>
        <mxCell id="rap8g_OsDWdLjL0PqcoZ-76" value="x" style="edgeLabel;html=1;align=center;verticalAlign=middle;resizable=0;points=[];" vertex="1" connectable="0" parent="rap8g_OsDWdLjL0PqcoZ-75">
          <mxGeometry x="0.5039" relative="1" as="geometry">
            <mxPoint as="offset" />
          </mxGeometry>
        </mxCell>
        <mxCell id="rap8g_OsDWdLjL0PqcoZ-77" style="edgeStyle=orthogonalEdgeStyle;rounded=0;orthogonalLoop=1;jettySize=auto;html=1;exitX=1;exitY=0.5;exitDx=0;exitDy=0;entryX=0;entryY=0.5;entryDx=0;entryDy=0;" edge="1" parent="1" source="rap8g_OsDWdLjL0PqcoZ-81" target="rap8g_OsDWdLjL0PqcoZ-84">
          <mxGeometry relative="1" as="geometry" />
        </mxCell>
        <mxCell id="rap8g_OsDWdLjL0PqcoZ-78" value="w" style="edgeLabel;html=1;align=center;verticalAlign=middle;resizable=0;points=[];" vertex="1" connectable="0" parent="rap8g_OsDWdLjL0PqcoZ-77">
          <mxGeometry x="0.7226" y="2" relative="1" as="geometry">
            <mxPoint x="3" y="2" as="offset" />
          </mxGeometry>
        </mxCell>
        <mxCell id="rap8g_OsDWdLjL0PqcoZ-79" style="edgeStyle=orthogonalEdgeStyle;rounded=0;orthogonalLoop=1;jettySize=auto;html=1;exitX=1;exitY=0.5;exitDx=0;exitDy=0;entryX=0;entryY=0.5;entryDx=0;entryDy=0;" edge="1" parent="1" source="rap8g_OsDWdLjL0PqcoZ-81" target="rap8g_OsDWdLjL0PqcoZ-90">
          <mxGeometry relative="1" as="geometry" />
        </mxCell>
        <mxCell id="rap8g_OsDWdLjL0PqcoZ-80" value="z" style="edgeLabel;html=1;align=center;verticalAlign=middle;resizable=0;points=[];" vertex="1" connectable="0" parent="rap8g_OsDWdLjL0PqcoZ-79">
          <mxGeometry x="0.756" y="2" relative="1" as="geometry">
            <mxPoint as="offset" />
          </mxGeometry>
        </mxCell>
        <mxCell id="rap8g_OsDWdLjL0PqcoZ-81" value="q10" style="ellipse;whiteSpace=wrap;html=1;" vertex="1" parent="1">
          <mxGeometry x="80" y="600" width="40" height="40" as="geometry" />
        </mxCell>
        <mxCell id="rap8g_OsDWdLjL0PqcoZ-82" style="edgeStyle=orthogonalEdgeStyle;rounded=0;orthogonalLoop=1;jettySize=auto;html=1;" edge="1" parent="1" source="rap8g_OsDWdLjL0PqcoZ-84" target="rap8g_OsDWdLjL0PqcoZ-93">
          <mxGeometry relative="1" as="geometry" />
        </mxCell>
        <mxCell id="rap8g_OsDWdLjL0PqcoZ-83" value="z" style="edgeLabel;html=1;align=center;verticalAlign=middle;resizable=0;points=[];" vertex="1" connectable="0" parent="rap8g_OsDWdLjL0PqcoZ-82">
          <mxGeometry x="0.0083" y="-4" relative="1" as="geometry">
            <mxPoint y="-4" as="offset" />
          </mxGeometry>
        </mxCell>
        <mxCell id="rap8g_OsDWdLjL0PqcoZ-84" value="q11" style="ellipse;whiteSpace=wrap;html=1;" vertex="1" parent="1">
          <mxGeometry x="240" y="480" width="40" height="40" as="geometry" />
        </mxCell>
        <mxCell id="rap8g_OsDWdLjL0PqcoZ-85" style="edgeStyle=orthogonalEdgeStyle;rounded=0;orthogonalLoop=1;jettySize=auto;html=1;" edge="1" parent="1" source="rap8g_OsDWdLjL0PqcoZ-87" target="rap8g_OsDWdLjL0PqcoZ-96">
          <mxGeometry relative="1" as="geometry" />
        </mxCell>
        <mxCell id="rap8g_OsDWdLjL0PqcoZ-86" value="x" style="edgeLabel;html=1;align=center;verticalAlign=middle;resizable=0;points=[];" vertex="1" connectable="0" parent="rap8g_OsDWdLjL0PqcoZ-85">
          <mxGeometry x="-0.0542" relative="1" as="geometry">
            <mxPoint as="offset" />
          </mxGeometry>
        </mxCell>
        <mxCell id="rap8g_OsDWdLjL0PqcoZ-87" value="q15" style="ellipse;whiteSpace=wrap;html=1;" vertex="1" parent="1">
          <mxGeometry x="240" y="600" width="40" height="40" as="geometry" />
        </mxCell>
        <mxCell id="rap8g_OsDWdLjL0PqcoZ-88" style="edgeStyle=orthogonalEdgeStyle;rounded=0;orthogonalLoop=1;jettySize=auto;html=1;exitX=1;exitY=0.5;exitDx=0;exitDy=0;" edge="1" parent="1" source="rap8g_OsDWdLjL0PqcoZ-90" target="rap8g_OsDWdLjL0PqcoZ-99">
          <mxGeometry relative="1" as="geometry" />
        </mxCell>
        <mxCell id="rap8g_OsDWdLjL0PqcoZ-89" value="w" style="edgeLabel;html=1;align=center;verticalAlign=middle;resizable=0;points=[];" vertex="1" connectable="0" parent="rap8g_OsDWdLjL0PqcoZ-88">
          <mxGeometry x="-0.0958" y="-1" relative="1" as="geometry">
            <mxPoint x="4" y="-1" as="offset" />
          </mxGeometry>
        </mxCell>
        <mxCell id="rap8g_OsDWdLjL0PqcoZ-90" value="q19" style="ellipse;whiteSpace=wrap;html=1;" vertex="1" parent="1">
          <mxGeometry x="240" y="720" width="40" height="40" as="geometry" />
        </mxCell>
        <mxCell id="rap8g_OsDWdLjL0PqcoZ-91" style="edgeStyle=orthogonalEdgeStyle;rounded=0;orthogonalLoop=1;jettySize=auto;html=1;exitX=1;exitY=0.5;exitDx=0;exitDy=0;entryX=0;entryY=0.5;entryDx=0;entryDy=0;" edge="1" parent="1" source="rap8g_OsDWdLjL0PqcoZ-93" target="rap8g_OsDWdLjL0PqcoZ-102">
          <mxGeometry relative="1" as="geometry" />
        </mxCell>
        <mxCell id="rap8g_OsDWdLjL0PqcoZ-92" value="y" style="edgeLabel;html=1;align=center;verticalAlign=middle;resizable=0;points=[];" vertex="1" connectable="0" parent="rap8g_OsDWdLjL0PqcoZ-91">
          <mxGeometry x="-0.0143" y="-3" relative="1" as="geometry">
            <mxPoint y="-3" as="offset" />
          </mxGeometry>
        </mxCell>
        <mxCell id="rap8g_OsDWdLjL0PqcoZ-93" value="q12" style="ellipse;whiteSpace=wrap;html=1;" vertex="1" parent="1">
          <mxGeometry x="360" y="480" width="40" height="40" as="geometry" />
        </mxCell>
        <mxCell id="rap8g_OsDWdLjL0PqcoZ-94" style="edgeStyle=orthogonalEdgeStyle;rounded=0;orthogonalLoop=1;jettySize=auto;html=1;exitX=1;exitY=0.5;exitDx=0;exitDy=0;entryX=0;entryY=0.5;entryDx=0;entryDy=0;" edge="1" parent="1" source="rap8g_OsDWdLjL0PqcoZ-96" target="rap8g_OsDWdLjL0PqcoZ-105">
          <mxGeometry relative="1" as="geometry" />
        </mxCell>
        <mxCell id="rap8g_OsDWdLjL0PqcoZ-95" value="y" style="edgeLabel;html=1;align=center;verticalAlign=middle;resizable=0;points=[];" vertex="1" connectable="0" parent="rap8g_OsDWdLjL0PqcoZ-94">
          <mxGeometry x="0.0571" y="-2" relative="1" as="geometry">
            <mxPoint y="-2" as="offset" />
          </mxGeometry>
        </mxCell>
        <mxCell id="rap8g_OsDWdLjL0PqcoZ-96" value="q16" style="ellipse;whiteSpace=wrap;html=1;" vertex="1" parent="1">
          <mxGeometry x="360" y="600" width="40" height="40" as="geometry" />
        </mxCell>
        <mxCell id="rap8g_OsDWdLjL0PqcoZ-97" style="edgeStyle=orthogonalEdgeStyle;rounded=0;orthogonalLoop=1;jettySize=auto;html=1;entryX=0;entryY=0.5;entryDx=0;entryDy=0;" edge="1" parent="1" source="rap8g_OsDWdLjL0PqcoZ-99" target="rap8g_OsDWdLjL0PqcoZ-108">
          <mxGeometry relative="1" as="geometry" />
        </mxCell>
        <mxCell id="rap8g_OsDWdLjL0PqcoZ-98" value="x" style="edgeLabel;html=1;align=center;verticalAlign=middle;resizable=0;points=[];" vertex="1" connectable="0" parent="rap8g_OsDWdLjL0PqcoZ-97">
          <mxGeometry x="0.1524" y="3" relative="1" as="geometry">
            <mxPoint as="offset" />
          </mxGeometry>
        </mxCell>
        <mxCell id="rap8g_OsDWdLjL0PqcoZ-99" value="q20" style="ellipse;whiteSpace=wrap;html=1;" vertex="1" parent="1">
          <mxGeometry x="360" y="720" width="40" height="40" as="geometry" />
        </mxCell>
        <mxCell id="rap8g_OsDWdLjL0PqcoZ-100" style="edgeStyle=orthogonalEdgeStyle;rounded=0;orthogonalLoop=1;jettySize=auto;html=1;exitX=1;exitY=0.5;exitDx=0;exitDy=0;entryX=0;entryY=0.5;entryDx=0;entryDy=0;" edge="1" parent="1" source="rap8g_OsDWdLjL0PqcoZ-102" target="rap8g_OsDWdLjL0PqcoZ-114">
          <mxGeometry relative="1" as="geometry" />
        </mxCell>
        <mxCell id="rap8g_OsDWdLjL0PqcoZ-101" value="x" style="edgeLabel;html=1;align=center;verticalAlign=middle;resizable=0;points=[];" vertex="1" connectable="0" parent="rap8g_OsDWdLjL0PqcoZ-100">
          <mxGeometry x="-0.187" y="1" relative="1" as="geometry">
            <mxPoint as="offset" />
          </mxGeometry>
        </mxCell>
        <mxCell id="rap8g_OsDWdLjL0PqcoZ-102" value="q13" style="ellipse;whiteSpace=wrap;html=1;" vertex="1" parent="1">
          <mxGeometry x="470" y="480" width="40" height="40" as="geometry" />
        </mxCell>
        <mxCell id="rap8g_OsDWdLjL0PqcoZ-103" style="edgeStyle=orthogonalEdgeStyle;rounded=0;orthogonalLoop=1;jettySize=auto;html=1;exitX=1;exitY=0.5;exitDx=0;exitDy=0;" edge="1" parent="1" source="rap8g_OsDWdLjL0PqcoZ-105" target="rap8g_OsDWdLjL0PqcoZ-119">
          <mxGeometry relative="1" as="geometry" />
        </mxCell>
        <mxCell id="rap8g_OsDWdLjL0PqcoZ-104" value="z" style="edgeLabel;html=1;align=center;verticalAlign=middle;resizable=0;points=[];" vertex="1" connectable="0" parent="rap8g_OsDWdLjL0PqcoZ-103">
          <mxGeometry x="-0.1956" relative="1" as="geometry">
            <mxPoint as="offset" />
          </mxGeometry>
        </mxCell>
        <mxCell id="rap8g_OsDWdLjL0PqcoZ-105" value="q17" style="ellipse;whiteSpace=wrap;html=1;" vertex="1" parent="1">
          <mxGeometry x="470" y="600" width="40" height="40" as="geometry" />
        </mxCell>
        <mxCell id="rap8g_OsDWdLjL0PqcoZ-106" style="edgeStyle=orthogonalEdgeStyle;rounded=0;orthogonalLoop=1;jettySize=auto;html=1;entryX=0;entryY=0.5;entryDx=0;entryDy=0;" edge="1" parent="1" source="rap8g_OsDWdLjL0PqcoZ-108" target="rap8g_OsDWdLjL0PqcoZ-124">
          <mxGeometry relative="1" as="geometry" />
        </mxCell>
        <mxCell id="rap8g_OsDWdLjL0PqcoZ-107" value="w" style="edgeLabel;html=1;align=center;verticalAlign=middle;resizable=0;points=[];" vertex="1" connectable="0" parent="rap8g_OsDWdLjL0PqcoZ-106">
          <mxGeometry x="-0.0637" y="1" relative="1" as="geometry">
            <mxPoint as="offset" />
          </mxGeometry>
        </mxCell>
        <mxCell id="rap8g_OsDWdLjL0PqcoZ-108" value="q21" style="ellipse;whiteSpace=wrap;html=1;" vertex="1" parent="1">
          <mxGeometry x="470" y="720" width="40" height="40" as="geometry" />
        </mxCell>
        <mxCell id="rap8g_OsDWdLjL0PqcoZ-109" value="q28" style="ellipse;whiteSpace=wrap;html=1;fillColor=#f5f5f5;fontColor=#333333;strokeColor=#666666;" vertex="1" parent="1">
          <mxGeometry x="720" y="480" width="40" height="40" as="geometry" />
        </mxCell>
        <mxCell id="rap8g_OsDWdLjL0PqcoZ-110" style="edgeStyle=orthogonalEdgeStyle;rounded=0;orthogonalLoop=1;jettySize=auto;html=1;exitX=1;exitY=0.5;exitDx=0;exitDy=0;entryX=0;entryY=0.5;entryDx=0;entryDy=0;" edge="1" parent="1" source="rap8g_OsDWdLjL0PqcoZ-114" target="rap8g_OsDWdLjL0PqcoZ-109">
          <mxGeometry relative="1" as="geometry">
            <Array as="points" />
          </mxGeometry>
        </mxCell>
        <mxCell id="rap8g_OsDWdLjL0PqcoZ-111" value="y" style="edgeLabel;html=1;align=center;verticalAlign=middle;resizable=0;points=[];" vertex="1" connectable="0" parent="rap8g_OsDWdLjL0PqcoZ-110">
          <mxGeometry x="-0.4245" relative="1" as="geometry">
            <mxPoint x="31" as="offset" />
          </mxGeometry>
        </mxCell>
        <mxCell id="rap8g_OsDWdLjL0PqcoZ-114" value="q14" style="ellipse;whiteSpace=wrap;html=1;" vertex="1" parent="1">
          <mxGeometry x="580" y="480" width="40" height="40" as="geometry" />
        </mxCell>
        <mxCell id="rap8g_OsDWdLjL0PqcoZ-115" style="edgeStyle=orthogonalEdgeStyle;rounded=0;orthogonalLoop=1;jettySize=auto;html=1;exitX=1;exitY=0.5;exitDx=0;exitDy=0;entryX=0;entryY=0.5;entryDx=0;entryDy=0;" edge="1" parent="1" source="rap8g_OsDWdLjL0PqcoZ-119" target="rap8g_OsDWdLjL0PqcoZ-146">
          <mxGeometry relative="1" as="geometry" />
        </mxCell>
        <mxCell id="rap8g_OsDWdLjL0PqcoZ-116" value="w" style="edgeLabel;html=1;align=center;verticalAlign=middle;resizable=0;points=[];" vertex="1" connectable="0" parent="rap8g_OsDWdLjL0PqcoZ-115">
          <mxGeometry x="0.178" y="-1" relative="1" as="geometry">
            <mxPoint as="offset" />
          </mxGeometry>
        </mxCell>
        <mxCell id="rap8g_OsDWdLjL0PqcoZ-119" value="q18" style="ellipse;whiteSpace=wrap;html=1;" vertex="1" parent="1">
          <mxGeometry x="580" y="600" width="40" height="40" as="geometry" />
        </mxCell>
        <mxCell id="rap8g_OsDWdLjL0PqcoZ-124" value="q22" style="ellipse;whiteSpace=wrap;html=1;" vertex="1" parent="1">
          <mxGeometry x="580" y="720" width="40" height="40" as="geometry" />
        </mxCell>
        <mxCell id="rap8g_OsDWdLjL0PqcoZ-139" value="q12" style="ellipse;whiteSpace=wrap;html=1;fillColor=#f5f5f5;fontColor=#333333;strokeColor=#666666;" vertex="1" parent="1">
          <mxGeometry x="600" y="83" width="40" height="40" as="geometry" />
        </mxCell>
        <mxCell id="rap8g_OsDWdLjL0PqcoZ-140" value="q19" style="ellipse;whiteSpace=wrap;html=1;fillColor=#f5f5f5;fontColor=#333333;strokeColor=#666666;" vertex="1" parent="1">
          <mxGeometry x="600" y="203" width="40" height="40" as="geometry" />
        </mxCell>
        <mxCell id="rap8g_OsDWdLjL0PqcoZ-144" value="q10" style="ellipse;whiteSpace=wrap;html=1;fillColor=#f5f5f5;fontColor=#333333;strokeColor=#666666;" vertex="1" parent="1">
          <mxGeometry x="600" y="323" width="40" height="40" as="geometry" />
        </mxCell>
        <mxCell id="rap8g_OsDWdLjL0PqcoZ-145" value="&lt;b&gt;M = ({w, x, y, z}.{q0, q1, q2, q3...q33},δ, q0, {q33}&lt;/b&gt;" style="text;html=1;align=center;verticalAlign=middle;whiteSpace=wrap;rounded=0;" vertex="1" parent="1">
          <mxGeometry x="30" y="20" width="280" height="30" as="geometry" />
        </mxCell>
        <mxCell id="rap8g_OsDWdLjL0PqcoZ-146" value="q32" style="ellipse;whiteSpace=wrap;html=1;fillColor=#f5f5f5;fontColor=#333333;strokeColor=#666666;" vertex="1" parent="1">
          <mxGeometry x="720" y="600" width="40" height="40" as="geometry" />
        </mxCell>
        <mxCell id="rap8g_OsDWdLjL0PqcoZ-150" value="" style="edgeStyle=orthogonalEdgeStyle;rounded=0;orthogonalLoop=1;jettySize=auto;html=1;exitX=1;exitY=0.5;exitDx=0;exitDy=0;entryX=-0.06;entryY=0.505;entryDx=0;entryDy=0;entryPerimeter=0;" edge="1" parent="1" source="rap8g_OsDWdLjL0PqcoZ-124" target="rap8g_OsDWdLjL0PqcoZ-149">
          <mxGeometry relative="1" as="geometry">
            <mxPoint x="620" y="740" as="sourcePoint" />
            <mxPoint x="740" y="640" as="targetPoint" />
          </mxGeometry>
        </mxCell>
        <mxCell id="rap8g_OsDWdLjL0PqcoZ-151" value="x" style="edgeLabel;html=1;align=center;verticalAlign=middle;resizable=0;points=[];" vertex="1" connectable="0" parent="rap8g_OsDWdLjL0PqcoZ-150">
          <mxGeometry x="-0.566" y="1" relative="1" as="geometry">
            <mxPoint x="39" y="1" as="offset" />
          </mxGeometry>
        </mxCell>
        <mxCell id="rap8g_OsDWdLjL0PqcoZ-149" value="q25" style="ellipse;whiteSpace=wrap;html=1;fillColor=#f5f5f5;fontColor=#333333;strokeColor=#666666;" vertex="1" parent="1">
          <mxGeometry x="720" y="720" width="40" height="40" as="geometry" />
        </mxCell>
        <mxCell id="rap8g_OsDWdLjL0PqcoZ-153" value="&lt;b&gt;q33&lt;/b&gt;" style="ellipse;whiteSpace=wrap;html=1;" vertex="1" parent="1">
          <mxGeometry x="650" y="820" width="40" height="40" as="geometry" />
        </mxCell>
        <mxCell id="rap8g_OsDWdLjL0PqcoZ-154" value="&lt;b&gt;q34&lt;/b&gt;" style="ellipse;whiteSpace=wrap;html=1;" vertex="1" parent="1">
          <mxGeometry x="650" y="940" width="40" height="40" as="geometry" />
        </mxCell>
        <mxCell id="rap8g_OsDWdLjL0PqcoZ-155" value="&lt;b&gt;q35&lt;/b&gt;" style="ellipse;whiteSpace=wrap;html=1;" vertex="1" parent="1">
          <mxGeometry x="650" y="1060" width="40" height="40" as="geometry" />
        </mxCell>
      </root>
    </mxGraphModel>
  </diagram>
</mxfile>
